<?xml version="1.0" standalone="no"?><svg xmlns="http://www.w3.org/2000/svg" viewBox="0 0 1440 320"><path fill="#ff5500" fill-opacity="1" d="M0,224L26.7,197.3C53.3,171,107,117,160,106.7C213.3,96,267,128,320,144C373.3,160,427,160,480,154.7C533.3,149,587,139,640,117.3C693.3,96,747,64,800,53.3C853.3,43,907,53,960,64C1013.3,75,1067,85,1120,128C1173.3,171,1227,245,1280,266.7C1333.3,288,1387,256,1413,240L1440,224L1440,0L1413.3,0C1386.7,0,1333,0,1280,0C1226.7,0,1173,0,1120,0C1066.7,0,1013,0,960,0C906.7,0,853,0,800,0C746.7,0,693,0,640,0C586.7,0,533,0,480,0C426.7,0,373,0,320,0C266.7,0,213,0,160,0C106.7,0,53,0,27,0L0,0Z"></path></svg>